Get ready to play with the Tweenies in two fantastic DVDs featuring your favourite friends - Bella, Milo, Fizz and Jake.

Animal Friends - Join the Tweenies and all their animal friends as they dress up, sing songs and listen to wonderful stories.
Party Games, Laughs and Giggles - It's time to come to the best party ever! Join Bella, Milo, Fizz and Jake for oodles of party fun, songs and games.

Format                           : MPEG-4
Format profile                   : Base Media / Version 2
Codec ID                         : mp42
File size                        : 800 MiB
Duration                         : 1h 0mn
Overall bit rate                 : 1 863 Kbps
Encoded date                     : UTC 2010-02-02 09:57:42
Tagged date                      : UTC 2010-02-02 12:57:40
Writing application              : HandBrake 0.9.3 2008112300

Video
ID                               : 1
Format                           : AVC
Format/Info                      : Advanced Video Codec
Format profile                   : Main@L4.0
Format settings, CABAC           : Yes
Format settings, ReFrames        : 3 frames
Codec ID                         : avc1
Codec ID/Info                    : Advanced Video Coding
Duration                         : 1h 0mn
Bit rate mode                    : Variable
Bit rate                         : 1 699 Kbps
Width                            : 702 pixels
Height                           : 568 pixels
Display aspect ratio             : 16:9
Frame rate mode                  : Variable
Frame rate                       : 25.000 fps
Minimum frame rate               : 12.500 fps
Maximum frame rate               : 25.000 fps
Resolution                       : 24 bits
Colorimetry                      : 4:2:0
Scan type                        : Progressive
Bits/(Pixel*Frame)               : 0.170
Stream size                      : 729 MiB (91%)
Writing library                  : x264 core 65


Audio
ID                               : 2
Format                           : AAC
Format/Info                      : Advanced Audio Codec
Format version                   : Version 4
Format profile                   : LC
Format settings, SBR             : No
Codec ID                         : 40
Duration                         : 1h 0mn
Bit rate mode                    : Variable
Bit rate                         : 160 Kbps
Maximum bit rate                 : 227 Kbps
Channel(s)                       : 2 channels
Channel positions                : L R
Sampling rate                    : 48.0 KHz
Resolution                       : 16 bits
Stream size                      : 68.7 MiB (9%)
Language                         : English
Encoded date                     : UTC 2010-02-02 09:57:42
Tagged date                      : UTC 2010-02-02 12:57:35

